<svg width="214" height="185" viewBox="0 0 214 185" fill="none" xmlns="http://www.w3.org/2000/svg">
<rect x="99.5479" width="58.5108" height="120.479" rx="29.2554" transform="rotate(18.6081 99.5479 0)" fill="#F0F9FF"/>
<rect x="101.793" y="5.72693" width="50.1997" height="110.439" rx="25.0998" transform="rotate(18.6081 101.793 5.72693)" fill="#0369A1"/>
<path d="M93.7843 29.5146C98.2076 16.377 112.444 9.31276 125.581 13.7361C138.719 18.1595 145.783 32.3954 141.36 45.533L131.909 73.6025L107.407 65.353L84.3334 57.5841L93.7843 29.5146Z" fill="#0C4A6E"/>
<ellipse cx="74.3641" cy="68.5555" rx="30.1198" ry="30.1198" transform="rotate(-67.4623 74.3641 68.5555)" fill="#F0F9FF"/>
<ellipse cx="74.4985" cy="68.6431" rx="25.0998" ry="25.0998" transform="rotate(-67.4623 74.4985 68.6431)" fill="#075985"/>
<g filter="url(#filter0_i_880_2266)">
<line x1="52.3192" y1="80.5808" x2="95.9675" y2="55.785" stroke="#0C4A6E" stroke-width="4"/>
</g>
<path d="M4.23844 184.4C3.73177 184.4 3.2651 184.2 2.83844 183.8C2.43844 183.4 2.15844 182.933 1.99844 182.4C1.91844 182.16 1.9051 181.987 1.95844 181.88C2.01177 181.773 2.13177 181.613 2.31844 181.4C2.55844 181.16 2.7451 180.907 2.87844 180.64C3.01177 180.373 3.07844 179.973 3.07844 179.44V156H7.79844V179.92H19.8384V184H5.71844C5.3451 184.267 4.85177 184.4 4.23844 184.4ZM31.4916 184.4C29.4116 184.4 27.6116 184 26.0916 183.2C24.5716 182.373 23.3982 181.213 22.5716 179.72C21.7716 178.2 21.3716 176.44 21.3716 174.44C21.3716 172.493 21.7182 170.747 22.4116 169.2C23.1316 167.653 24.2116 166.44 25.6516 165.56C27.0916 164.653 28.8382 164.2 30.8916 164.2C32.9449 164.2 34.6916 164.653 36.1316 165.56C37.5982 166.44 38.6916 167.613 39.4116 169.08C40.1316 170.52 40.4916 172.08 40.4916 173.76C40.4916 174.56 40.2249 175.173 39.6916 175.6C39.1849 176.027 38.4782 176.24 37.5716 176.24H26.0116C26.0116 177.547 26.5049 178.6 27.4916 179.4C28.5049 180.2 29.8382 180.6 31.4916 180.6C33.7582 180.6 35.5982 179.92 37.0116 178.56L39.3316 181.08C38.4782 182.12 37.3716 182.933 36.0116 183.52C34.6782 184.107 33.1716 184.4 31.4916 184.4ZM35.8916 172.56C35.8916 171.227 35.4249 170.12 34.4916 169.24C33.5849 168.36 32.3849 167.92 30.8916 167.92C29.4516 167.92 28.2782 168.373 27.3716 169.28C26.4649 170.16 26.0116 171.253 26.0116 172.56H35.8916ZM68.2 184.4C67.3467 182.907 66.92 181.173 66.92 179.2V172.28C66.92 170.813 66.68 169.733 66.2 169.04C65.72 168.347 64.9467 168 63.88 168C62.7067 168 61.8133 168.387 61.2 169.16C60.6133 169.933 60.32 171 60.32 172.36V184H55.76V172.24C55.76 170.8 55.52 169.733 55.04 169.04C54.56 168.347 53.8133 168 52.8 168C51.5467 168 50.6 168.467 49.96 169.4C49.3467 170.307 49.04 171.6 49.04 173.28V184H44.4V169.84C44.4 168.96 44.3333 168.227 44.2 167.64C44.0933 167.053 43.8667 166.44 43.52 165.8L47.48 164.2C47.72 164.627 47.9333 165.133 48.12 165.72C48.3333 166.28 48.4533 166.813 48.48 167.32C49.0133 166.333 49.76 165.573 50.72 165.04C51.68 164.48 52.6933 164.2 53.76 164.2C56 164.2 57.6133 165.267 58.6 167.4C59.3733 166.307 60.2667 165.507 61.28 165C62.2933 164.467 63.48 164.2 64.84 164.2C67.0267 164.2 68.6933 164.84 69.84 166.12C70.9867 167.4 71.56 169.093 71.56 171.2V179.12C71.56 180.533 71.84 181.773 72.4 182.84L68.2 184.4ZM75.4341 182.92C75.7807 182.333 76.0341 181.733 76.1941 181.12C76.3541 180.48 76.4341 179.667 76.4341 178.68V154.64H81.0741V166.8C81.7941 166.027 82.6741 165.4 83.7141 164.92C84.7541 164.44 85.8741 164.2 87.0741 164.2C89.7674 164.2 91.8741 165.093 93.3941 166.88C94.9407 168.667 95.7141 171.133 95.7141 174.28C95.7141 176.227 95.3274 177.973 94.5541 179.52C93.8074 181.067 92.7541 182.267 91.3941 183.12C90.0607 183.973 88.5541 184.4 86.8741 184.4C84.2074 184.4 82.1007 183.347 80.5541 181.24C80.4741 182.52 80.0341 183.587 79.2341 184.44L75.4341 182.92ZM86.1941 180.68C87.7674 180.68 88.9674 180.107 89.7941 178.96C90.6474 177.787 91.0741 176.227 91.0741 174.28C91.0741 172.227 90.6607 170.653 89.8341 169.56C89.0074 168.467 87.7541 167.92 86.0741 167.92C84.4741 167.92 83.2207 168.507 82.3141 169.68C81.4341 170.827 80.9941 172.2 80.9941 173.8V174.84C80.9941 176.547 81.4474 177.947 82.3541 179.04C83.2607 180.133 84.5407 180.68 86.1941 180.68ZM99.6344 169.84C99.6344 168.987 99.5677 168.267 99.4344 167.68C99.3277 167.067 99.101 166.44 98.7544 165.8L102.874 164.2C103.114 164.6 103.328 165.107 103.514 165.72C103.728 166.307 103.848 166.853 103.874 167.36C104.568 166.293 105.314 165.507 106.114 165C106.941 164.467 107.888 164.2 108.954 164.2C109.701 164.2 110.354 164.293 110.914 164.48C111.474 164.667 112.088 165 112.754 165.48L110.994 168.72C110.221 168.24 109.421 168 108.594 168C107.154 168 106.074 168.48 105.354 169.44C104.634 170.4 104.274 171.76 104.274 173.52V184H99.6344V169.84ZM121.104 184.4C119.398 184.4 117.891 184 116.584 183.2C115.304 182.4 114.304 181.267 113.584 179.8C112.864 178.307 112.504 176.573 112.504 174.6C112.504 172.493 112.864 170.667 113.584 169.12C114.331 167.547 115.384 166.333 116.744 165.48C118.104 164.627 119.704 164.2 121.544 164.2C123.838 164.2 125.718 165.093 127.184 166.88V164.6H131.664V178.72C131.664 179.68 131.731 180.48 131.864 181.12C132.024 181.733 132.278 182.333 132.624 182.92L128.864 184.4C128.118 183.573 127.691 182.533 127.584 181.28H127.464C126.718 182.267 125.798 183.04 124.704 183.6C123.638 184.133 122.438 184.4 121.104 184.4ZM121.984 180.68C123.638 180.68 124.904 180.147 125.784 179.08C126.664 178.013 127.104 176.6 127.104 174.84V173.8C127.104 172.2 126.664 170.827 125.784 169.68C124.931 168.507 123.704 167.92 122.104 167.92C120.531 167.92 119.318 168.507 118.464 169.68C117.611 170.853 117.184 172.493 117.184 174.6C117.184 176.52 117.598 178.013 118.424 179.08C119.251 180.147 120.438 180.68 121.984 180.68ZM150.068 184.4C149.508 184.4 149.028 184.28 148.628 184.04C148.255 183.8 148.002 183.467 147.868 183.04L142.148 165.32L140.428 184.04H135.668L138.428 158.52L138.228 158.16C138.095 157.893 138.028 157.613 138.028 157.32C138.028 156.787 138.228 156.32 138.628 155.92C139.055 155.493 139.668 155.28 140.468 155.28C141.428 155.28 142.122 155.467 142.548 155.84C143.002 156.213 143.362 156.813 143.628 157.64L149.948 177.12L156.268 157.64C156.562 156.787 156.922 156.187 157.348 155.84C157.802 155.467 158.508 155.28 159.468 155.28C160.268 155.28 160.868 155.48 161.268 155.88C161.695 156.28 161.908 156.747 161.908 157.28C161.908 157.627 161.828 157.92 161.668 158.16L161.508 158.48L164.228 184.04H159.468L157.748 165.28L152.508 181.6L152.628 182C152.682 182.267 152.708 182.453 152.708 182.56C152.708 183.12 152.455 183.573 151.948 183.92C151.442 184.24 150.815 184.4 150.068 184.4ZM168.47 160.52C168.47 159.987 168.39 159.587 168.23 159.32C168.097 159.027 167.91 158.76 167.67 158.52C167.51 158.333 167.39 158.187 167.31 158.08C167.257 157.947 167.27 157.773 167.35 157.56C167.537 157 167.843 156.48 168.27 156C168.723 155.52 169.203 155.28 169.71 155.28C170.19 155.28 170.67 155.52 171.15 156H185.59V160.08H173.19V167.36H182.23V171.28H173.19V179.92H185.95V184H168.47V160.52ZM190.149 160.52C190.149 159.987 190.082 159.587 189.949 159.32C189.815 159.053 189.629 158.8 189.389 158.56C189.149 158.293 189.029 158.067 189.029 157.88C189.029 157.747 189.042 157.64 189.069 157.56C189.255 157 189.562 156.48 189.989 156C190.442 155.52 190.922 155.28 191.429 155.28C191.909 155.28 192.389 155.52 192.869 156H198.349C201.175 156 203.615 156.573 205.669 157.72C207.722 158.84 209.295 160.453 210.389 162.56C211.482 164.64 212.029 167.093 212.029 169.92C212.029 174.347 210.855 177.8 208.509 180.28C206.189 182.76 202.869 184 198.549 184H190.149V160.52ZM198.549 179.92C201.482 179.92 203.655 179.093 205.069 177.44C206.509 175.76 207.229 173.253 207.229 169.92C207.229 166.693 206.455 164.253 204.909 162.6C203.389 160.92 201.162 160.08 198.229 160.08H194.869V179.92H198.549Z" fill="white"/>
<defs>
<filter id="filter0_i_880_2266" x="51.3313" y="54.046" width="45.624" height="30.3738" filterUnits="userSpaceOnUse" color-interpolation-filters="sRGB">
<feFlood flood-opacity="0" result="BackgroundImageFix"/>
<feBlend mode="normal" in="SourceGraphic" in2="BackgroundImageFix" result="shape"/>
<feColorMatrix in="SourceAlpha" type="matrix" values="0 0 0 0 0 0 0 0 0 0 0 0 0 0 0 0 0 0 127 0" result="hardAlpha"/>
<feOffset dy="4"/>
<feGaussianBlur stdDeviation="1.05"/>
<feComposite in2="hardAlpha" operator="arithmetic" k2="-1" k3="1"/>
<feColorMatrix type="matrix" values="0 0 0 0 0 0 0 0 0 0 0 0 0 0 0 0 0 0 0.25 0"/>
<feBlend mode="normal" in2="shape" result="effect1_innerShadow_880_2266"/>
</filter>
</defs>
</svg>
