<svg width="120" height="133" viewBox="0 0 120 133" fill="none" xmlns="http://www.w3.org/2000/svg">
<rect x="64.5479" width="58.5108" height="120.479" rx="29.2554" transform="rotate(18.6081 64.5479 0)" fill="#F0F9FF"/>
<rect x="66.7935" y="5.72693" width="50.1997" height="110.439" rx="25.0998" transform="rotate(18.6081 66.7935 5.72693)" fill="#0369A1"/>
<path d="M58.7843 29.5146C63.2076 16.377 77.4436 9.31276 90.5811 13.7361C103.719 18.1595 110.783 32.3954 106.36 45.533L96.9088 73.6025L72.4075 65.353L49.3334 57.5841L58.7843 29.5146Z" fill="#0C4A6E"/>
<ellipse cx="39.3641" cy="68.5555" rx="30.1198" ry="30.1198" transform="rotate(-67.4623 39.3641 68.5555)" fill="#F0F9FF"/>
<ellipse cx="39.4985" cy="68.6431" rx="25.0998" ry="25.0998" transform="rotate(-67.4623 39.4985 68.6431)" fill="#075985"/>
<g filter="url(#filter0_i_428_877)">
<line x1="17.3192" y1="80.5808" x2="60.9675" y2="55.785" stroke="#0C4A6E" stroke-width="4"/>
</g>
<defs>
<filter id="filter0_i_428_877" x="16.3313" y="54.046" width="45.624" height="30.3738" filterUnits="userSpaceOnUse" color-interpolation-filters="sRGB">
<feFlood flood-opacity="0" result="BackgroundImageFix"/>
<feBlend mode="normal" in="SourceGraphic" in2="BackgroundImageFix" result="shape"/>
<feColorMatrix in="SourceAlpha" type="matrix" values="0 0 0 0 0 0 0 0 0 0 0 0 0 0 0 0 0 0 127 0" result="hardAlpha"/>
<feOffset dy="4"/>
<feGaussianBlur stdDeviation="1.05"/>
<feComposite in2="hardAlpha" operator="arithmetic" k2="-1" k3="1"/>
<feColorMatrix type="matrix" values="0 0 0 0 0 0 0 0 0 0 0 0 0 0 0 0 0 0 0.25 0"/>
<feBlend mode="normal" in2="shape" result="effect1_innerShadow_428_877"/>
</filter>
</defs>
</svg>
